<svg xmlns="http://www.w3.org/2000/svg">

    <g id="logo">
        <path d="M512 960c-92.8 0-160-200-160-448S419.2 64 512 64s160 200 160 448-67.2 448-160 448z m0-32c65.6 0 128-185.6 128-416S577.6 96 512 96s-128 185.6-128 416 62.4 416 128 416z"
              fill="#050D42"/>
        <path d="M124.8 736c-48-80 92.8-238.4 307.2-363.2S852.8 208 899.2 288 806.4 526.4 592 651.2 171.2 816 124.8 736z m27.2-16c33.6 57.6 225.6 17.6 424-97.6S905.6 361.6 872 304 646.4 286.4 448 401.6 118.4 662.4 152 720z"
              fill="#050D42"/>
        <path d="M899.2 736c-46.4 80-254.4 38.4-467.2-84.8S76.8 368 124.8 288s254.4-38.4 467.2 84.8S947.2 656 899.2 736z m-27.2-16c33.6-57.6-97.6-203.2-296-318.4S184 246.4 152 304 249.6 507.2 448 622.4s392 155.2 424 97.6z"
              fill="#050D42"/>
        <path d="M512 592c-44.8 0-80-35.2-80-80s35.2-80 80-80 80 35.2 80 80-35.2 80-80 80zM272 312c-27.2 0-48-20.8-48-48s20.8-48 48-48 48 20.8 48 48-20.8 48-48 48zM416 880c-27.2 0-48-20.8-48-48s20.8-48 48-48 48 20.8 48 48-20.8 48-48 48z m448-432c-27.2 0-48-20.8-48-48s20.8-48 48-48 48 20.8 48 48-20.8 48-48 48z"
              fill="#2F4BFF"/>
    </g>
    <g id="menuBottom">
        <path d="M0.693848 0.941406L941.298 1.44141" stroke="#828282"/>
    </g>

    <g id="skill">
        <path d="M3.93411 4.42578H85.5995V85.2804H3.93411V4.42578Z" fill="url(#paint0_radial_6_7747)"/>
        <path d="M3.93406 4.42575H85.5994V85.2803H3.93406V4.42575ZM0.221191 89.0596H89.2944V0.646484H0.221191V89.0596ZM60.2876 36.9311C57.3602 36.9311 56.3605 38.4392 56.3605 39.6929C56.3605 41.0556 57.021 42.0004 60.9659 44.0717C66.7852 46.9425 68.6059 49.7043 68.6059 53.7379C68.6059 59.7884 64.0719 63.0408 57.9492 63.0408C54.7183 63.0408 51.9337 62.3685 50.345 61.4237C50.0772 61.3146 50.0415 61.1148 50.0415 60.8241V55.246C50.0415 54.8645 50.22 54.7554 50.4878 54.9371C52.8262 56.4815 55.5037 57.172 57.9492 57.172C60.8767 57.172 62.1084 55.9183 62.1084 54.2285C62.1084 52.8658 61.2515 51.6666 57.503 49.6861C52.2371 47.1242 50.0415 44.526 50.0415 40.1653C50.0415 35.2958 53.7901 31.244 60.2876 31.244C63.4828 31.244 65.7141 31.7346 66.928 32.2979C67.2314 32.4796 67.3028 32.7884 67.3028 33.061V38.2393C67.3028 38.5482 67.1243 38.7299 66.7495 38.6209C65.1072 37.567 62.6974 36.9311 60.2876 36.9311ZM28.3712 41.419C29.228 41.4917 29.8885 41.4917 31.3701 41.4917C35.7077 41.4917 39.7954 39.9472 39.7954 33.9331C39.7954 29.1364 36.868 26.7198 31.9234 26.7198C30.4418 26.7198 29.0317 26.7925 28.3533 26.8288L28.3712 41.419ZM21.7487 21.3598C21.7487 21.0872 22.2664 20.9055 22.5698 20.9055C24.9439 20.7965 28.4783 20.7239 32.1376 20.7239C42.4194 20.7239 46.4358 26.4654 46.4358 33.7878C46.4358 43.3813 39.5991 47.5058 31.2094 47.5058C29.7992 47.5058 29.3173 47.4331 28.3176 47.4331V61.9324C28.3176 62.2413 28.2105 62.3867 27.8714 62.3867H22.195C21.8915 62.3867 21.7487 62.2776 21.7487 61.9324V21.3598Z"
              fill="#31C5F0"/>
        <defs>
            <radialGradient id="paint0_radial_6_7747" cx="0" cy="0" r="1" gradientUnits="userSpaceOnUse"
                            gradientTransform="translate(30.8385 22.5656) scale(62.0565 61.1565)">
                <stop stop-color="#34364E" stop-opacity="0.98"/>
                <stop offset="1" stop-color="#0C0824"/>
            </radialGradient>
        </defs>
    </g>

    <g id="grade">
        <path d="M12.9251 3.85982C13.225 2.93955 14.5269 2.93955 14.8267 3.85982L16.5778 9.23422C16.7119 9.64585 17.0957 9.92443 17.5286 9.92443H23.1894C24.1588 9.92443 24.5611 11.1655 23.7761 11.7342L19.2012 15.0489C18.8498 15.3035 18.7027 15.7558 18.8371 16.1684L20.5857 21.5351C20.8857 22.4559 19.8325 23.2229 19.0482 22.6547L14.4626 19.3323C14.1126 19.0787 13.6392 19.0787 13.2892 19.3323L8.70366 22.6547C7.91941 23.2229 6.86612 22.4559 7.16614 21.5351L8.91471 16.1684C9.04917 15.7558 8.90209 15.3035 8.55063 15.0489L3.97575 11.7342C3.19075 11.1655 3.59308 9.92443 4.56247 9.92443H10.2232C10.6562 9.92443 11.0399 9.64585 11.174 9.23422L12.9251 3.85982Z"
              fill="#070707"/>
        <path d="M48.0222 3.85982C48.322 2.93955 49.6239 2.93955 49.9238 3.85982L51.6749 9.23422C51.809 9.64585 52.1928 9.92443 52.6257 9.92443H58.2864C59.2558 9.92443 59.6582 11.1655 58.8732 11.7342L54.2983 15.0489C53.9468 15.3035 53.7997 15.7558 53.9342 16.1684L55.6828 21.5351C55.9828 22.4559 54.9295 23.2229 54.1452 22.6547L49.5597 19.3323C49.2097 19.0787 48.7363 19.0787 48.3863 19.3323L43.8007 22.6547C43.0165 23.2229 41.9632 22.4559 42.2632 21.5351L44.0118 16.1684C44.1462 15.7558 43.9991 15.3035 43.6477 15.0489L39.0728 11.7342C38.2878 11.1655 38.6901 9.92443 39.6595 9.92443H45.3203C45.7532 9.92443 46.137 9.64585 46.2711 9.23422L48.0222 3.85982Z"
              fill="#070707"/>
        <path d="M83.1193 3.85982C83.4192 2.93955 84.7211 2.93955 85.0209 3.85982L86.772 9.23422C86.9062 9.64585 87.2899 9.92443 87.7228 9.92443H93.3836C94.353 9.92443 94.7553 11.1655 93.9703 11.7342L89.3954 15.0489C89.044 15.3035 88.8969 15.7558 89.0314 16.1684L90.7799 21.5351C91.08 22.4559 90.0267 23.2229 89.2424 22.6547L84.6569 19.3323C84.3068 19.0787 83.8335 19.0787 83.4834 19.3323L78.8979 22.6547C78.1136 23.2229 77.0603 22.4559 77.3604 21.5351L79.1089 16.1684C79.2434 15.7558 79.0963 15.3035 78.7448 15.0489L74.17 11.7342C73.385 11.1655 73.7873 9.92443 74.7567 9.92443H80.4174C80.8504 9.92443 81.2341 9.64585 81.3682 9.23422L83.1193 3.85982Z"
              fill="#070707"/>
        <path d="M118.216 3.85982C118.516 2.93955 119.818 2.93955 120.118 3.85982L121.869 9.23422C122.003 9.64585 122.387 9.92443 122.82 9.92443H128.481C129.45 9.92443 129.852 11.1655 129.067 11.7342L124.492 15.0489C124.141 15.3035 123.994 15.7558 124.128 16.1684L125.877 21.5351C126.177 22.4559 125.124 23.2229 124.339 22.6547L119.754 19.3323C119.404 19.0787 118.931 19.0787 118.58 19.3323L113.995 22.6547C113.211 23.2229 112.157 22.4559 112.457 21.5351L114.206 16.1684C114.34 15.7558 114.193 15.3035 113.842 15.0489L109.267 11.7342C108.482 11.1655 108.884 9.92443 109.854 9.92443H115.514C115.947 9.92443 116.331 9.64585 116.465 9.23422L118.216 3.85982Z"
              fill="#070707"/>
        <path d="M153.314 3.85982C153.613 2.93955 154.915 2.93955 155.215 3.85982L156.966 9.23422C157.1 9.64585 157.484 9.92443 157.917 9.92443H163.578C164.547 9.92443 164.95 11.1655 164.165 11.7342L159.59 15.0489C159.238 15.3035 159.091 15.7558 159.226 16.1684L160.974 21.5351C161.274 22.4559 160.221 23.2229 159.437 22.6547L154.851 19.3323C154.501 19.0787 154.028 19.0787 153.678 19.3323L149.092 22.6547C148.308 23.2229 147.255 22.4559 147.555 21.5351L149.303 16.1684C149.438 15.7558 149.291 15.3035 148.939 15.0489L144.364 11.7342C143.579 11.1655 143.982 9.92443 144.951 9.92443H150.612C151.045 9.92443 151.428 9.64585 151.562 9.23422L153.314 3.85982Z"
              fill="#D8D8D8"/>
    </g>

    <!--Footer logo-->

    <g id="WA_Logo">
        <g>
            <path fill-rule="evenodd" clip-rule="evenodd" d="M20.5,3.5C18.25,1.25,15.2,0,12,0C5.41,0,0,5.41,0,12c0,2.11,0.65,4.11,1.7,5.92
			L0,24l6.33-1.55C8.08,23.41,10,24,12,24c6.59,0,12-5.41,12-12C24,8.81,22.76,5.76,20.5,3.5z M12,22c-1.78,0-3.48-0.59-5.01-1.49
			l-0.36-0.22l-3.76,0.99l1-3.67l-0.24-0.38C2.64,15.65,2,13.88,2,12C2,6.52,6.52,2,12,2c2.65,0,5.2,1.05,7.08,2.93S22,9.35,22,12
			C22,17.48,17.47,22,12,22z M17.5,14.45c-0.3-0.15-1.77-0.87-2.04-0.97c-0.27-0.1-0.47-0.15-0.67,0.15
			c-0.2,0.3-0.77,0.97-0.95,1.17c-0.17,0.2-0.35,0.22-0.65,0.07c-0.3-0.15-1.26-0.46-2.4-1.48c-0.89-0.79-1.49-1.77-1.66-2.07
			c-0.17-0.3-0.02-0.46,0.13-0.61c0.13-0.13,0.3-0.35,0.45-0.52s0.2-0.3,0.3-0.5c0.1-0.2,0.05-0.37-0.02-0.52
			C9.91,9.02,9.31,7.55,9.06,6.95c-0.24-0.58-0.49-0.5-0.67-0.51C8.22,6.43,8.02,6.43,7.82,6.43S7.3,6.51,7.02,6.8
			C6.75,7.1,5.98,7.83,5.98,9.3c0,1.47,1.07,2.89,1.22,3.09c0.15,0.2,2.11,3.22,5.1,4.51c0.71,0.31,1.27,0.49,1.7,0.63
			c0.72,0.23,1.37,0.2,1.88,0.12c0.57-0.09,1.77-0.72,2.02-1.42c0.25-0.7,0.25-1.3,0.17-1.42C18,14.68,17.8,14.6,17.5,14.45z"/>
        </g>
    </g>

    <g id="LI_Logo">
        <path d="M31.181 31.326h-6.501c-0.46 0-0.831-0.372-0.831-0.831v-10.469c0-3.591-1.852-3.591-2.463-3.591-1.644 0-2.343 1.298-2.57 1.858-0.107 0.252-0.157 0.68-0.157 1.279v10.929c0 0.46-0.372 0.831-0.831 0.831h-6.507c-0.22 0-0.435-0.088-0.592-0.246s-0.246-0.372-0.239-0.592c0-0.176 0.088-17.732 0-19.528-0.013-0.227 0.069-0.447 0.227-0.611s0.372-0.258 0.605-0.258h6.507c0.46 0 0.831 0.372 0.831 0.831v0.491c1.096-0.976 2.677-1.783 5.033-1.783 5.209 0 8.321 3.603 8.321 9.638v11.219c0 0.46-0.372 0.831-0.831 0.831h0zM25.512 29.663l4.844-0v-10.387c0-5.071-2.425-7.975-6.658-7.975-2.828 0-4.202 1.411-5.065 2.702-0.101 0.34-0.422 0.592-0.8 0.592h-0.044c-0.302 0-0.58-0.164-0.724-0.428-0.113-0.208-0.139-0.447-0.063-0.668v-1.745h-4.832c0.044 3.471 0 14.702-0.013 17.902h4.838v-10.091c0-0.838 0.088-1.442 0.277-1.902 0.731-1.808 2.268-2.898 4.107-2.898 2.62 0 4.126 1.915 4.126 5.254v9.644h0.006zM7.723 31.326h-6.507c-0.46 0-0.831-0.372-0.831-0.831v-19.565c0-0.46 0.372-0.831 0.831-0.831h6.507c0.46 0 0.831 0.372 0.831 0.831v19.565c0 0.46-0.372 0.831-0.831 0.831zM2.047 29.663h4.844v-17.902h-4.844v17.902zM4.472 9.090l-0.044-0c-2.564 0-4.428-1.776-4.428-4.22 0-2.438 1.896-4.214 4.517-4.214 2.576 0 4.416 1.726 4.466 4.195 0 2.463-1.896 4.239-4.51 4.239zM4.516 2.324c-1.707 0-2.854 1.027-2.854 2.551 0 1.499 1.134 2.551 2.765 2.551h0.044c1.701 0 2.847-1.027 2.847-2.551-0.032-1.543-1.134-2.551-2.803-2.551z"/>
    </g>

    <g id="TG_Logo">
        <path fill-rule="evenodd" clip-rule="evenodd"
              d="M23.1117 4.49449C23.4296 2.94472 21.9074 1.65683 20.4317 2.227L2.3425 9.21601C0.694517 9.85273 0.621087 12.1572 2.22518 12.8975L6.1645 14.7157L8.03849 21.2746C8.13583 21.6153 8.40618 21.8791 8.74917 21.968C9.09216 22.0568 9.45658 21.9576 9.70712 21.707L12.5938 18.8203L16.6375 21.8531C17.8113 22.7334 19.5019 22.0922 19.7967 20.6549L23.1117 4.49449ZM3.0633 11.0816L21.1525 4.0926L17.8375 20.2531L13.1 16.6999C12.7019 16.4013 12.1448 16.4409 11.7929 16.7928L10.5565 18.0292L10.928 15.9861L18.2071 8.70703C18.5614 8.35278 18.5988 7.79106 18.2947 7.39293C17.9906 6.99479 17.4389 6.88312 17.0039 7.13168L6.95124 12.876L3.0633 11.0816ZM8.17695 14.4791L8.78333 16.6015L9.01614 15.321C9.05253 15.1209 9.14908 14.9366 9.29291 14.7928L11.5128 12.573L8.17695 14.4791Z"/>
    </g>

    <g id="GH_Logo">
        <path d="M1873.256 674.212c0-122.468-35.728-230.622-106.325-321.88 15.712-57.683 32.5-171.972-20.77-313.703-5.596-15.066-17.864-26.796-33.146-32.07-19.155-6.564-122.144-30.347-328.552 110.953-84.157-22.169-172.94-33.576-264.844-34.114-91.582.538-180.366 11.945-264.306 34.114C648.689-23.68 545.7-.005 526.437 6.56c-15.282 5.165-27.55 17.003-33.146 32.177-53.162 141.623-36.374 255.912-20.555 313.594-70.704 91.582-106.54 199.629-106.54 321.88 0 422.826 221.905 557.131 432.188 605.666-46.49 50.903-95.24 125.158-105.68 219.537-71.78 26.044-257.633 78.13-325.109-44.015-3.013-5.596-73.394-137.641-215.017-148.08-25.075 1.184-84.587 4.305-101.052 54.346-18.51 55.961 39.495 97.716 67.906 117.41.538.323 55.745 31.962 93.841 132.045.969 4.628 23.783 114.72 134.951 181.55 87.492 52.731 202.319 63.493 341.252 32.284 0 23.46-.323 48.212-.43 63.386l-.324 31.101H796.34l.215-29.81c1.937-161.532 2.045-164.653-30.778-181.656-12.484-6.457-27.012-7.964-40.356-3.659-136.243 41.002-246.98 40.033-320.052-2.798-70.488-41.54-85.985-108.908-88.89-119.67-3.875-10.653-8.072-20.662-12.269-30.24 126.987 145.713 372.138 77.161 463.289 33.792 18.833-8.825 30.778-27.765 30.778-48.535 0-149.372 148.295-244.182 149.802-245.15 19.371-12.16 28.949-35.19 23.998-57.36-4.95-22.276-23.352-39.065-46.06-41.755-223.626-26.796-452.204-109.338-452.204-518.388 0-106.325 33.577-198.983 99.76-275.175 12.915-15.067 16.681-36.052 9.579-54.562-9.793-25.397-36.482-112.782-.323-234.819 35.729 4.09 110.845 24.321 231.16 110.307 13.344 9.578 30.455 12.376 46.383 7.856 80.497-23.568 170.356-36.267 259.248-36.805 89.321.538 179.073 13.237 259.786 36.805 15.927 4.52 32.93 1.722 46.382-7.856 121.176-86.631 196.4-106.433 230.73-110.63 36.482 122.145 9.793 209.745 0 235.142-7.21 18.51-3.444 39.603 9.578 54.562 66.076 75.977 99.545 168.527 99.545 275.175 0 409.157-229.115 491.161-453.173 517.527-20.985 2.475-38.634 16.896-44.984 37.02-6.456 20.017-.538 42.078 15.067 56.284 6.35 5.703 14.958 12.483 25.074 20.231 51.333 39.28 137.211 105.034 137.211 259.571 0 85.448-1.399 354.273-1.399 354.273l107.617.539s1.399-269.257 1.399-354.812c0-141.838-56.499-229.976-110.845-285.937 210.39-48.427 431.65-182.517 431.65-604.696"
              fill-rule="evenodd"/>
    </g>

    <!--Skills logo-->

    <g id="TS_Logo">
        <path d="M0 60V120H60H120V60V0H60H0V60Z" fill="#007ACC"/>
        <path d="M26.5374 60.3979L26.4993 65.3122H34.3088H42.1184L42.1184 87.5026V109.693H47.6422H53.166V87.5026L53.166 65.3122H60.9755H68.785V60.4931C68.785 57.8264 68.7279 55.5979 68.6517 55.5407C68.5946 55.4645 59.0898 55.4264 47.566 55.4455L26.5946 55.5026L26.5374 60.3979Z"
              fill="white"/>
        <path d="M96.8264 55.3636C99.874 56.1255 102.198 57.4779 104.331 59.6874C105.436 60.8684 107.074 63.0208 107.207 63.535C107.245 63.6874 102.026 67.1922 98.8644 69.1541C98.7502 69.2303 98.293 68.7351 97.7787 67.9731C96.2359 65.7255 94.6168 64.7541 92.1406 64.5827C88.5025 64.335 86.1597 66.2398 86.1787 69.4208C86.1787 70.3541 86.3121 70.9065 86.693 71.6684C87.493 73.3255 88.9787 74.316 93.6454 76.3351C102.236 80.0303 105.912 82.4684 108.198 85.935C110.75 89.8017 111.322 95.9731 109.588 100.564C107.683 105.554 102.96 108.945 96.3121 110.068C94.2549 110.43 89.3787 110.373 87.1692 109.973C82.3502 109.116 77.7787 106.735 74.9597 103.611C73.8549 102.392 71.7025 99.2112 71.8359 98.9827C71.893 98.9065 72.3883 98.6017 72.9406 98.2779C73.474 97.9731 75.493 96.8112 77.3978 95.7065L80.8454 93.7065L81.5692 94.7731C82.5787 96.316 84.7883 98.4303 86.1216 99.135C89.9502 101.154 95.2073 100.868 97.7978 98.5446C98.9025 97.535 99.3597 96.4874 99.3597 94.9446C99.3597 93.5541 99.1883 92.9446 98.4644 91.897C97.5311 90.5636 95.6263 89.4398 90.2168 87.097C84.0263 84.4303 81.3597 82.7731 78.9216 80.1446C77.5121 78.6208 76.1787 76.1827 75.6264 74.1446C75.1692 72.4493 75.0549 68.2017 75.4168 66.4874C76.693 60.5065 81.2073 56.335 87.7216 55.097C89.8359 54.697 94.7502 54.8493 96.8264 55.3636Z"
              fill="white"/>
    </g>

    <g id="JS_Logo">
        <path d="M2.25476 0H117.745V120H2.25476V0Z" fill="#F7DF1E"/>
        <path d="M32.6199 100.28L41.4581 94.7229C43.1631 97.8641 44.7142 100.522 48.4346 100.522C52.0009 100.522 54.2493 99.0723 54.2493 93.4342V55.0913H65.1024V93.5936C65.1024 105.274 58.5132 110.59 48.8999 110.59C40.2177 110.59 35.178 105.918 32.6198 100.28"
              fill="black"/>
        <path d="M70.9998 99.0724L79.8368 93.756C82.1631 97.7035 85.1866 100.603 90.5354 100.603C95.0324 100.603 97.9 98.2669 97.9 95.0448C97.9 91.1783 94.9543 89.8088 89.9926 87.5541L87.2801 86.345C79.4496 82.8819 74.2553 78.5322 74.2553 69.3492C74.2553 60.8913 80.4571 54.4469 90.1481 54.4469C97.0478 54.4469 102.009 56.9442 105.575 63.469L97.1248 69.1073C95.2641 65.6438 93.2491 64.2747 90.1483 64.2747C86.9697 64.2747 84.9539 66.369 84.9539 69.1073C84.9539 72.4905 86.9697 73.8602 91.6207 75.9547L94.3338 77.1629C103.559 81.2713 108.754 85.4595 108.754 94.8836C108.754 105.034 101.079 110.591 90.7682 110.591C80.6901 110.591 74.1779 105.597 70.9999 99.0724"
              fill="black"/>
    </g>

    <g id="Redux_Logo">
        <g clip-path="url(#clip0_1_3276)">
            <path d="M83.1473 82.6013C87.5756 82.1428 90.9352 78.3253 90.7823 73.7438C90.63 69.1627 86.812 65.4975 82.2309 65.4975H81.9258C77.1914 65.6503 73.5267 69.6207 73.6795 74.3546C73.8323 76.6453 74.7483 78.6305 76.1227 80.0049C70.9308 90.2368 62.9902 97.7194 51.0792 103.98C42.9858 108.256 34.5872 109.784 26.1886 108.715C19.3167 107.798 13.972 104.745 10.612 99.7046C5.72578 92.2219 5.26781 84.128 9.39093 76.0346C12.2925 70.2314 16.8731 65.9555 19.7747 63.8175C19.1639 61.8324 18.2475 58.4728 17.7895 56.0297C-4.35282 72.0643 -2.06204 93.7491 4.65703 103.98C9.69609 111.616 19.9275 116.35 31.2276 116.35C34.2816 116.35 37.3355 116.045 40.3898 115.282C59.9362 111.464 74.7487 99.8574 83.1473 82.6013ZM110.024 63.6652C98.4178 50.0738 81.315 42.5911 61.7686 42.5911H59.3255C57.9511 39.8424 55.0495 38.0096 51.8428 38.0096H51.5372C46.8037 38.1624 43.1391 42.1327 43.2914 46.8671C43.4442 51.4482 47.2617 55.1133 51.8428 55.1133H52.148C55.5075 54.9605 58.4091 52.8225 59.6306 49.921H62.3794C73.9852 49.921 84.9797 53.2805 94.9059 59.8472C102.541 64.8868 108.038 71.4535 111.092 79.3941C113.688 85.808 113.535 92.0691 110.787 97.4143C106.511 105.508 99.3342 109.936 89.8664 109.936C83.7581 109.936 77.9555 108.104 74.9011 106.729C73.2216 108.256 70.1672 110.7 68.0292 112.227C74.5959 115.281 81.315 116.961 87.7284 116.961C102.388 116.961 113.23 108.867 117.353 100.774C121.782 91.9163 121.476 76.6453 110.024 63.6652ZM32.4492 85.1968C32.602 89.7783 36.4195 93.443 41.0006 93.443H41.3062C46.0401 93.2907 49.7048 89.3199 49.552 84.586C49.3997 80.0044 45.5817 76.3397 41.0006 76.3397H40.6955C40.3898 76.3397 39.9314 76.3397 39.6267 76.4921C33.3656 66.1078 30.7697 54.8077 31.6861 42.5907C32.2964 33.428 35.3508 25.4869 40.6955 18.9202C45.1237 13.2699 53.6751 10.5211 59.4783 10.3688C75.6647 10.0632 82.5361 30.2208 82.9945 38.3147C84.9797 38.7727 88.3392 39.8419 90.63 40.6055C88.7972 15.8668 73.5267 3.03894 58.8675 3.03894C45.1237 3.03894 32.4492 12.9652 27.4097 27.6253C20.3855 47.1722 24.9666 65.9555 33.518 80.7685C32.7548 81.8372 32.2964 83.5172 32.4492 85.1972V85.1968Z"
                  fill="#764ABC"/>
        </g>
        <defs>
            <clipPath id="clip0_1_3276">
                <rect width="120" height="120" fill="white"/>
            </clipPath>
        </defs>
    </g>

    <g id="Figma_Logo">
        <g clip-path="url(#clip0_6_7784)">
            <path d="M15.0513 89.6605C23.0898 89.6605 29.61 83.0208 29.61 74.8348V60.0091H15.0513C7.0128 60.0091 0.492676 66.6488 0.492676 74.8348C0.492676 83.0208 7.0128 89.6605 15.0513 89.6605Z"
                  fill="#0ACF83"/>
            <path d="M0.492676 45.1652C0.492676 36.9793 7.0128 30.3395 15.0513 30.3395H29.61V60.0091H15.0513C7.0128 59.9909 0.492676 53.3512 0.492676 45.1652Z"
                  fill="#A259FF"/>
            <path d="M0.492676 15.4956C0.492676 7.30965 7.0128 0.669922 15.0513 0.669922H29.61V30.3395H15.0513C7.0128 30.3395 0.492676 23.6816 0.492676 15.4956Z"
                  fill="#F24E1E"/>
            <path d="M29.6278 0.669922H44.1865C52.225 0.669922 58.7451 7.30965 58.7451 15.4956C58.7451 23.6816 52.225 30.3213 44.1865 30.3213H29.6278V0.669922Z"
                  fill="#FF7262"/>
            <path d="M58.7451 45.1652C58.7451 53.3512 52.225 59.9909 44.1865 59.9909C36.1479 59.9909 29.6278 53.3512 29.6278 45.1652C29.6278 36.9793 36.1479 30.3395 44.1865 30.3395C52.225 30.3395 58.7451 36.9793 58.7451 45.1652Z"
                  fill="#1ABCFE"/>
        </g>
        <defs>
            <clipPath id="clip0_6_7784">
                <rect width="58.2524" height="88.9906" fill="white" transform="translate(0.492676 0.669922)"/>
            </clipPath>
        </defs>
    </g>


    <g id="MUI_Logo">
        <g id="SVGRepo_bgCarrier" stroke-width="0"/>
        <g id="SVGRepo_tracerCarrier" stroke-linecap="round" stroke-linejoin="round"/>
        <g id="SVGRepo_iconCarrier">
            <g>
                <polygon fill="#00B0FF"
                         points="0 110.848 0 0 96 55.424 96 92.3733333 32 55.424 32 129.322667"/>
                <polygon fill="#0081CB"
                         points="96 55.424 192 0 192 110.848 128 147.797333 96 129.322667 160 92.3733333 160 55.424 96 92.3733333"/>
                <polygon fill="#00B0FF" points="96 129.322667 96 166.272 160 203.221333 160 166.272"/>
                <path d="M160,203.221333 L256,147.797333 L256,73.8986667 L224,92.3733333 L224,129.322667 L160,166.272 L160,203.221333 Z M224,55.424 L224,18.4746667 L256,5.68434189e-14 L256,36.9493333 L224,55.424 Z"
                      fill="#0081CB"/>
            </g>
        </g>
    </g>

    <g id="React_Logo">

        <g clip-path="url(#clip0_13_2986)">
            <path d="M93.1056 32.7027C91.9031 32.2887 90.6904 31.9051 89.4687 31.5523C89.6739 30.7106 89.8628 29.8792 90.0305 29.0623C92.7838 15.6483 90.9839 4.84178 84.8361 1.28375C78.9416 -2.12722 69.3016 1.42949 59.5659 9.93342C58.6064 10.773 57.6682 11.6368 56.7521 12.524C56.1389 11.934 55.5149 11.3556 54.8803 10.7888C44.6767 1.69616 34.4493 -2.13608 28.3081 1.43215C22.4189 4.85374 20.675 15.0127 23.1538 27.7254C23.4004 28.9844 23.6788 30.237 23.9888 31.4819C22.5411 31.8947 21.1442 32.3342 19.8073 32.8019C7.84441 36.9881 0.204742 43.5483 0.204742 50.3529C0.204742 57.3808 8.40627 64.43 20.8661 68.7043C21.8763 69.0495 22.8948 69.3692 23.9209 69.6634C23.5876 71.0042 23.2918 72.354 23.0337 73.7114C20.6706 86.2035 22.516 96.1223 28.3893 99.5222C34.4555 103.033 44.637 99.4247 54.5506 90.7268C55.3545 90.0196 56.1407 89.2925 56.9084 88.546C57.9004 89.5066 58.9189 90.4393 59.9627 91.343C69.566 99.6365 79.0501 102.985 84.9177 99.5762C90.9782 96.055 92.948 85.3995 90.3907 72.4356C90.1892 71.42 89.9633 70.4094 89.7132 69.4047C90.4282 69.1921 91.13 68.9732 91.8141 68.7455C104.767 64.4384 113.195 57.4747 113.195 50.3529C113.195 43.5234 105.309 36.919 93.1056 32.7027ZM90.2962 64.1474C89.6783 64.3525 89.0445 64.5505 88.3983 64.7432C86.9683 60.1995 85.0386 55.3684 82.6769 50.3764C84.9305 45.5036 86.786 40.734 88.1759 36.22C89.3318 36.5558 90.4534 36.9097 91.5347 37.2832C101.991 40.8961 108.369 46.2372 108.369 50.3529C108.369 54.7367 101.481 60.4277 90.2962 64.1474ZM85.6557 73.3765C86.7865 79.1087 86.9476 84.2916 86.1986 88.3435C85.5259 91.9844 84.1727 94.4115 82.499 95.3839C78.9385 97.4526 71.3235 94.7637 63.111 87.6706C62.1401 86.8305 61.1927 85.9634 60.2699 85.0703C63.4539 81.5756 66.6357 77.5131 69.7412 73.0008C75.2036 72.5144 80.3641 71.7188 85.0439 70.6331C85.2694 71.5426 85.4734 72.4573 85.6557 73.3765ZM38.7257 95.0264C35.2468 96.2592 32.4759 96.2946 30.8009 95.3254C27.2369 93.2624 25.7552 85.298 27.7762 74.6151C28.0165 73.3527 28.2915 72.0972 28.6011 70.8502C33.2293 71.8779 38.3523 72.6168 43.8275 73.0624C46.9542 77.4776 50.2278 81.5358 53.5271 85.0894C52.8259 85.7703 52.1082 86.4338 51.3745 87.0793C46.9904 90.9252 42.5974 93.654 38.7257 95.0264ZM22.4277 64.1204C16.9181 62.2302 12.368 59.7738 9.24929 57.0933C6.44659 54.6848 5.032 52.2932 5.032 50.3529C5.032 46.2234 11.1657 40.9564 21.3962 37.3766C22.6378 36.9425 23.9372 36.5327 25.2856 36.1482C26.6997 40.7641 28.5544 45.5904 30.7925 50.4707C28.5252 55.4233 26.6441 60.3267 25.2163 64.997C24.2797 64.7278 23.3499 64.4355 22.4277 64.1204ZM27.891 26.7947C25.7676 15.9031 27.1777 7.68706 30.7268 5.62497C34.5067 3.42867 42.8653 6.56011 51.6755 14.4115C52.25 14.9247 52.8152 15.4482 53.3708 15.9819C50.0879 19.52 46.8443 23.548 43.7454 27.9371C38.4313 28.4315 33.3445 29.2253 28.6678 30.2889C28.3797 29.131 28.1206 27.9661 27.891 26.7951V26.7947ZM76.6301 38.8739C75.5255 36.9589 74.3798 35.0679 73.194 33.2024C76.7991 33.66 80.2533 34.2673 83.4969 35.0098C82.5233 38.1425 81.3095 41.4175 79.8808 44.7753C78.8365 42.7867 77.7527 40.8191 76.6301 38.8739ZM56.7544 19.4443C58.9806 21.8652 61.2104 24.5678 63.4036 27.5003C58.9546 27.2894 54.4982 27.2886 50.0491 27.4977C52.2444 24.5922 54.4932 21.8931 56.7544 19.4443ZM36.751 38.9071C35.6425 40.8367 34.5789 42.792 33.5613 44.7713C32.1559 41.4255 30.9532 38.1355 29.9712 34.9584C33.1949 34.2346 36.6327 33.6427 40.2149 33.1935C39.0159 35.0704 37.8609 36.9754 36.751 38.9067V38.9071ZM40.3177 67.8569C36.6169 67.4423 33.1274 66.881 29.9045 66.1767C30.902 62.9429 32.1312 59.5829 33.567 56.1653C34.5887 58.1461 35.6567 60.1026 36.77 62.033C37.9149 64.0176 39.1004 65.9614 40.3177 67.8569ZM56.8876 81.6027C54.5996 79.1255 52.3177 76.3848 50.0892 73.4372C52.2528 73.5222 54.4583 73.5656 56.7001 73.5656C59.0031 73.5656 61.2797 73.5138 63.5205 73.4137C61.3203 76.4145 59.0989 79.1592 56.8876 81.6027ZM79.9263 55.9907C81.4366 59.446 82.7095 62.7883 83.7203 65.9667C80.4444 66.7171 76.9073 67.3214 73.1804 67.7701C74.3746 65.8699 75.5311 63.9461 76.6491 61.9998C77.7858 60.0214 78.8784 58.0179 79.9263 55.9907ZM72.468 59.5794C70.7564 62.5634 68.9487 65.4909 67.0475 68.357C63.6038 68.6018 60.1524 68.7234 56.7001 68.7216C53.1837 68.7216 49.7635 68.6118 46.47 68.3974C44.5192 65.5378 42.677 62.6053 40.9471 59.6059H40.9476C39.2259 56.6225 37.6177 53.5745 36.1265 50.4685C37.6139 47.3618 39.2172 44.3124 40.933 41.3267L40.9326 41.3271C42.6477 38.3407 44.4753 35.4206 46.4113 32.5734C49.7714 32.3182 53.2172 32.1853 56.6996 32.1853H56.7001C60.1984 32.1853 63.6485 32.3195 67.0078 32.5765C68.9243 35.4195 70.7402 38.3295 72.4521 41.301C74.1736 44.2801 75.7981 47.3147 77.3231 50.3999C75.8138 53.5166 74.1944 56.5783 72.468 59.5794ZM82.4253 5.48056C86.2087 7.67067 87.6802 16.5024 85.303 28.0842C85.1512 28.8231 84.9808 29.5757 84.7954 30.339C80.1072 29.2528 75.0169 28.4452 69.6874 27.9433C66.5828 23.506 63.3656 19.4717 60.1361 15.9792C60.9825 15.1604 61.849 14.3628 62.7349 13.5871C71.0768 6.30141 78.8732 3.42468 82.4253 5.48056ZM56.7001 40.2263C62.2724 40.2263 66.7898 44.7603 66.7898 50.3529C66.7898 55.9456 62.2724 60.4795 56.7001 60.4795C51.1278 60.4795 46.6104 55.9456 46.6104 50.3529C46.6104 44.7603 51.1278 40.2263 56.7001 40.2263Z"
                  fill="#00D8FF"/>
        </g>
        <defs>
            <clipPath id="clip0_13_2986">
                <rect width="113" height="101" fill="white" transform="translate(0.200012)"/>
            </clipPath>
        </defs>

    </g>

    <g id="HTML">
        <path d="M22.1325 102.004L13.7063 7.5H106.294L97.8563 101.989L59.9438 112.5L22.1325 102.004Z" fill="#E44F26"/>
        <path d="M60 104.468L90.6375 95.9738L97.845 15.2288H60V104.468Z" fill="#F1662A"/>
        <path d="M60 50.2763H44.6625L43.605 38.4075H60V26.8163H30.9375L31.215 29.9288L34.0613 61.8675H60V50.2763ZM60 80.3775L59.9475 80.3925L47.04 76.9088L46.215 67.665H34.5787L36.2025 85.86L59.9475 92.4525L60 92.4375V80.3775Z"
              fill="#EBEBEB"/>
        <path d="M59.9587 50.2763V61.8675H74.2312L72.8887 76.9013L59.9587 80.3888V92.4488L83.7225 85.86L83.895 83.9025L86.6175 53.3888L86.9025 50.2763H59.9587ZM59.9587 26.8163V38.4075H87.9562L88.1887 35.805L88.7175 29.9288L88.995 26.8163H59.9587Z"
              fill="white"/>
    </g>

    <g id="CSS">
        <path d="M22.1325 101.154L13.71 7.4375H106.29L97.8562 101.139L59.9437 111.562L22.1325 101.154Z" fill="#1572B6"/>
        <path d="M60 103.597L90.6375 95.1739L97.845 15.1018H60V103.597Z" fill="#33A9DC"/>
        <path d="M60 49.054H75.3375L76.395 37.2842H60V25.7896H89.0625L88.785 28.8724L85.9387 60.5487H60V49.054Z"
              fill="white"/>
        <path d="M60.0713 78.9045L60.0188 78.9193L47.1113 75.4609L46.2863 66.2942H34.65L36.2738 84.3413L60.015 90.8788L60.0713 90.864V78.9045Z"
              fill="#EBEBEB"/>
        <path d="M74.3513 60.0615L72.9563 75.4534L60.03 78.9119V90.8714L83.79 84.3412L83.9663 82.4001L85.98 60.0615H74.3513Z"
              fill="white"/>
        <path d="M60.0413 25.7896V37.2842H32.0438L31.8113 34.6997L31.2825 28.8724L31.005 25.7896H60.0413ZM60 49.054V60.5487H47.2538L47.0213 57.9642L46.4963 52.1369L46.2188 49.054H60Z"
              fill="#EBEBEB"/>
    </g>

    <g id="Git">
        <g clip-path="url(#clip0_4533_1197)">
            <mask id="mask0_4533_1197" style="mask-type:luminance" maskUnits="userSpaceOnUse" x="10" y="10" width="80"
                  height="80">
                <path d="M10.9375 10.9375H89.0625V89.0625H10.9375V10.9375Z" fill="#F03C2E"/>
            </mask>
            <g mask="url(#mask0_4533_1197)">
                <path d="M87.5875 46.5211L53.4786 12.4121C52.7753 11.7081 51.8789 11.2286 50.903 11.0343C49.927 10.8401 48.9153 10.9399 47.9961 11.3211C47.3858 11.5741 46.8314 11.9448 46.3645 12.4121L39.2844 19.4922L48.2688 28.4766C50.3586 27.7442 52.7512 28.2446 54.416 29.9098C55.2086 30.7038 55.7619 31.7048 56.0127 32.7982C56.2635 33.8917 56.2017 35.0337 55.8344 36.0938L64.4942 44.7535C66.5891 44.0309 69.0059 44.4969 70.6782 46.1743C71.5158 47.0116 72.0862 48.0786 72.3171 49.2403C72.5481 50.4019 72.4291 51.606 71.9754 52.7C71.3671 54.1668 70.2013 55.332 68.7342 55.9395C67.267 56.5469 65.6187 56.5469 64.1516 55.9395C63.425 55.6383 62.7649 55.1973 62.209 54.641C60.4512 52.8832 60.0168 50.2953 60.9055 48.1297L52.8293 40.0536V61.3063C53.4156 61.5963 53.9513 61.9788 54.416 62.4391C55.5388 63.5619 56.1696 65.0847 56.1696 66.6725C56.1696 68.2603 55.5388 69.7831 54.416 70.9059C53.2933 72.0287 51.7705 72.6594 50.1827 72.6594C48.5948 72.6594 47.072 72.0287 45.9493 70.9059C45.1112 70.069 44.5405 69.0022 44.3092 67.8406C44.0779 66.6791 44.1965 65.475 44.65 64.3809C44.9511 63.6544 45.3926 62.9946 45.9493 62.4391C46.5278 61.8629 47.17 61.4258 47.9098 61.1328V39.6825C47.1757 39.3823 46.5091 38.9383 45.9493 38.3766C45.1087 37.5369 44.5372 36.4659 44.3076 35.3001C44.078 34.1343 44.2008 32.9266 44.6602 31.8309L35.7981 22.9739L12.4094 46.3379C11.7053 47.0415 11.2257 47.9382 11.0314 48.9145C10.8371 49.8907 10.9367 50.9027 11.3176 51.8223C11.5708 52.4329 11.9418 52.9876 12.4094 53.4547L46.5207 87.561C46.9877 88.0282 47.5422 88.3989 48.1524 88.652C49.3853 89.1623 50.7703 89.1623 52.0032 88.652C52.6134 88.3989 53.1678 88.0282 53.6348 87.561L87.5875 53.6621C88.055 53.195 88.4259 52.6403 88.679 52.0298C88.932 51.4192 89.0624 50.7648 89.0625 50.1039C89.0626 49.443 88.9323 48.7884 88.6792 48.1778C88.4261 47.5672 88.0552 47.0125 87.5875 46.5453"
                      fill="#F03C2E"/>
            </g>
        </g>
    </g>


    >

    <g id="GitHub">
        <path fill-rule="evenodd" clip-rule="evenodd"
              d="M44 0C19.69 0 0 19.69 0 44C0 63.47 12.595 79.915 30.085 85.745C32.285 86.13 33.11 84.81 33.11 83.655C33.11 82.61 33.055 79.145 33.055 75.46C22 77.495 19.14 72.765 18.26 70.29C17.765 69.025 15.62 65.12 13.75 64.075C12.21 63.25 10.01 61.215 13.695 61.16C17.16 61.105 19.635 64.35 20.46 65.67C24.42 72.325 30.745 70.455 33.275 69.3C33.66 66.44 34.815 64.515 36.08 63.415C26.29 62.315 16.06 58.52 16.06 41.69C16.06 36.905 17.765 32.945 20.57 29.865C20.13 28.765 18.59 24.255 21.01 18.205C21.01 18.205 24.695 17.05 33.11 22.715C36.63 21.725 40.37 21.23 44.11 21.23C47.85 21.23 51.59 21.725 55.11 22.715C63.525 16.995 67.21 18.205 67.21 18.205C69.63 24.255 68.09 28.765 67.65 29.865C70.455 32.945 72.16 36.85 72.16 41.69C72.16 58.575 61.875 62.315 52.085 63.415C53.68 64.79 55.055 67.43 55.055 71.555C55.055 77.44 55 82.17 55 83.655C55 84.81 55.825 86.185 58.025 85.745C66.7597 82.796 74.3497 77.1822 79.7268 69.6937C85.1039 62.2052 87.9974 53.219 88 44C88 19.69 68.31 0 44 0Z"
              fill="black"/>
    </g>

    <g id="NextJS">>
        <path d="M120.81043,80.5613102 L217.378325,80.5613102 L217.378325,88.2366589 L129.662487,88.2366589 L129.662487,146.003758 L212.147564,146.003758 L212.147564,153.679106 L129.662487,153.679106 L129.662487,217.101725 L218.384241,217.101725 L218.384241,224.777073 L120.81043,224.777073 L120.81043,80.5613102 Z M226.0292,80.5613102 L236.289538,80.5613102 L281.756922,143.983929 L328.230222,80.5613102 L391.441486,0 L287.591232,150.649363 L341.105941,224.777073 L330.443237,224.777073 L281.756922,157.314798 L232.869425,224.777073 L222.407904,224.777073 L276.324978,150.649363 L226.0292,80.5613102 Z M344.928421,88.2366588 L344.928421,80.5613102 L454.975585,80.5613102 L454.975585,88.2366589 L404.27744,88.2366589 L404.27744,224.777073 L395.425382,224.777073 L395.425382,88.2366589 L344.928421,88.2366588 Z M1.42108547e-14,80.5613102 L11.0650714,80.5613102 L163.64593,308.884007 L100.591558,224.777073 L9.25442331,91.4683847 L8.85205708,224.777073 L1.42108547e-14,224.777073 L1.42108547e-14,80.5613102 Z M454.083705,214.785469 C452.275167,214.785469 450.918762,213.38418 450.918762,211.573285 C450.918762,209.762388 452.275167,208.361099 454.083705,208.361099 C455.913774,208.361099 457.248648,209.762388 457.248648,211.573285 C457.248648,213.38418 455.913774,214.785469 454.083705,214.785469 Z M462.781915,206.334618 L467.518563,206.334618 C467.583153,208.900055 469.456284,210.624719 472.212151,210.624719 C475.290972,210.624719 477.03492,208.770705 477.03492,205.29982 L477.03492,183.310363 L481.85769,183.310363 L481.85769,205.321379 C481.85769,211.573285 478.240613,215.173518 472.255212,215.173518 C466.635824,215.173518 462.781915,211.681076 462.781915,206.334618 Z M488.166045,206.054362 L492.945754,206.054362 C493.354828,209.007848 496.239878,210.883419 500.395211,210.883419 C504.270652,210.883419 507.11264,208.878498 507.11264,206.119036 C507.11264,203.747625 505.304102,202.324777 501.191828,201.354653 L497.187209,200.384531 C491.56782,199.069474 489.005723,196.353129 489.005723,191.782772 C489.005723,186.24229 493.527071,182.555823 500.30909,182.555823 C506.617445,182.555823 511.224912,186.24229 511.504805,191.480955 L506.811217,191.480955 C506.359083,188.613703 503.861576,186.824365 500.244499,186.824365 C496.43365,186.824365 493.893085,188.656819 493.893085,191.459398 C493.893085,193.679901 495.52938,194.95184 499.577063,195.900406 L503.000368,196.741178 C509.373314,198.228702 512,200.815695 512,205.493846 C512,211.443935 507.392533,215.173518 500.029197,215.173518 C493.139526,215.173518 488.51053,211.6164 488.166045,206.054362 Z"
              fill="#000000" fill-rule="nonzero"/>
    </g>

    <g id="Jira">
        <g>
            <path d="M244.657778,0 L121.706667,0 C121.706667,14.7201046 127.554205,28.837312 137.962891,39.2459977 C148.371577,49.6546835 162.488784,55.5022222 177.208889,55.5022222 L199.857778,55.5022222 L199.857778,77.3688889 C199.877391,107.994155 224.699178,132.815943 255.324444,132.835556 L255.324444,10.6666667 C255.324444,4.77562934 250.548815,3.60722001e-16 244.657778,0 Z"
                  fill="#2684FF"/>
            <path d="M183.822222,61.2622222 L60.8711111,61.2622222 C60.8907238,91.8874888 85.7125112,116.709276 116.337778,116.728889 L138.986667,116.728889 L138.986667,138.666667 C139.025905,169.291923 163.863607,194.097803 194.488889,194.097778 L194.488889,71.9288889 C194.488889,66.0378516 189.71326,61.2622222 183.822222,61.2622222 Z"
                  fill="#2684FF"/>
            <path d="M122.951111,122.488889 L0,122.488889 C3.75391362e-15,153.14192 24.8491913,177.991111 55.5022222,177.991111 L78.2222222,177.991111 L78.2222222,199.857778 C78.241767,230.45532 103.020285,255.265647 133.617778,255.324444 L133.617778,133.155556 C133.617778,127.264518 128.842148,122.488889 122.951111,122.488889 Z"
                  fill="#2684FF"/>
        </g>
    </g>


</svg>