<svg xmlns="http://www.w3.org/2000/svg">

    <g id="logo">
        <path d="M512 960c-92.8 0-160-200-160-448S419.2 64 512 64s160 200 160 448-67.2 448-160 448z m0-32c65.6 0 128-185.6 128-416S577.6 96 512 96s-128 185.6-128 416 62.4 416 128 416z"
              fill="#050D42"/>
        <path d="M124.8 736c-48-80 92.8-238.4 307.2-363.2S852.8 208 899.2 288 806.4 526.4 592 651.2 171.2 816 124.8 736z m27.2-16c33.6 57.6 225.6 17.6 424-97.6S905.6 361.6 872 304 646.4 286.4 448 401.6 118.4 662.4 152 720z"
              fill="#050D42"/>
        <path d="M899.2 736c-46.4 80-254.4 38.4-467.2-84.8S76.8 368 124.8 288s254.4-38.4 467.2 84.8S947.2 656 899.2 736z m-27.2-16c33.6-57.6-97.6-203.2-296-318.4S184 246.4 152 304 249.6 507.2 448 622.4s392 155.2 424 97.6z"
              fill="#050D42"/>
        <path d="M512 592c-44.8 0-80-35.2-80-80s35.2-80 80-80 80 35.2 80 80-35.2 80-80 80zM272 312c-27.2 0-48-20.8-48-48s20.8-48 48-48 48 20.8 48 48-20.8 48-48 48zM416 880c-27.2 0-48-20.8-48-48s20.8-48 48-48 48 20.8 48 48-20.8 48-48 48z m448-432c-27.2 0-48-20.8-48-48s20.8-48 48-48 48 20.8 48 48-20.8 48-48 48z"
              fill="#2F4BFF"/>
    </g>
    <g id="menuBottom">
        <path d="M0.693848 0.941406L941.298 1.44141" stroke="#828282"/>
    </g>

    <g id="skill">
        <path d="M3.93411 4.42578H85.5995V85.2804H3.93411V4.42578Z" fill="url(#paint0_radial_6_7747)"/>
        <path d="M3.93406 4.42575H85.5994V85.2803H3.93406V4.42575ZM0.221191 89.0596H89.2944V0.646484H0.221191V89.0596ZM60.2876 36.9311C57.3602 36.9311 56.3605 38.4392 56.3605 39.6929C56.3605 41.0556 57.021 42.0004 60.9659 44.0717C66.7852 46.9425 68.6059 49.7043 68.6059 53.7379C68.6059 59.7884 64.0719 63.0408 57.9492 63.0408C54.7183 63.0408 51.9337 62.3685 50.345 61.4237C50.0772 61.3146 50.0415 61.1148 50.0415 60.8241V55.246C50.0415 54.8645 50.22 54.7554 50.4878 54.9371C52.8262 56.4815 55.5037 57.172 57.9492 57.172C60.8767 57.172 62.1084 55.9183 62.1084 54.2285C62.1084 52.8658 61.2515 51.6666 57.503 49.6861C52.2371 47.1242 50.0415 44.526 50.0415 40.1653C50.0415 35.2958 53.7901 31.244 60.2876 31.244C63.4828 31.244 65.7141 31.7346 66.928 32.2979C67.2314 32.4796 67.3028 32.7884 67.3028 33.061V38.2393C67.3028 38.5482 67.1243 38.7299 66.7495 38.6209C65.1072 37.567 62.6974 36.9311 60.2876 36.9311ZM28.3712 41.419C29.228 41.4917 29.8885 41.4917 31.3701 41.4917C35.7077 41.4917 39.7954 39.9472 39.7954 33.9331C39.7954 29.1364 36.868 26.7198 31.9234 26.7198C30.4418 26.7198 29.0317 26.7925 28.3533 26.8288L28.3712 41.419ZM21.7487 21.3598C21.7487 21.0872 22.2664 20.9055 22.5698 20.9055C24.9439 20.7965 28.4783 20.7239 32.1376 20.7239C42.4194 20.7239 46.4358 26.4654 46.4358 33.7878C46.4358 43.3813 39.5991 47.5058 31.2094 47.5058C29.7992 47.5058 29.3173 47.4331 28.3176 47.4331V61.9324C28.3176 62.2413 28.2105 62.3867 27.8714 62.3867H22.195C21.8915 62.3867 21.7487 62.2776 21.7487 61.9324V21.3598Z"
              fill="#31C5F0"/>
        <defs>
            <radialGradient id="paint0_radial_6_7747" cx="0" cy="0" r="1" gradientUnits="userSpaceOnUse"
                            gradientTransform="translate(30.8385 22.5656) scale(62.0565 61.1565)">
                <stop stop-color="#34364E" stop-opacity="0.98"/>
                <stop offset="1" stop-color="#0C0824"/>
            </radialGradient>
        </defs>
    </g>

    <g id="grade">
        <path d="M12.9251 3.85982C13.225 2.93955 14.5269 2.93955 14.8267 3.85982L16.5778 9.23422C16.7119 9.64585 17.0957 9.92443 17.5286 9.92443H23.1894C24.1588 9.92443 24.5611 11.1655 23.7761 11.7342L19.2012 15.0489C18.8498 15.3035 18.7027 15.7558 18.8371 16.1684L20.5857 21.5351C20.8857 22.4559 19.8325 23.2229 19.0482 22.6547L14.4626 19.3323C14.1126 19.0787 13.6392 19.0787 13.2892 19.3323L8.70366 22.6547C7.91941 23.2229 6.86612 22.4559 7.16614 21.5351L8.91471 16.1684C9.04917 15.7558 8.90209 15.3035 8.55063 15.0489L3.97575 11.7342C3.19075 11.1655 3.59308 9.92443 4.56247 9.92443H10.2232C10.6562 9.92443 11.0399 9.64585 11.174 9.23422L12.9251 3.85982Z"
              fill="#070707"/>
        <path d="M48.0222 3.85982C48.322 2.93955 49.6239 2.93955 49.9238 3.85982L51.6749 9.23422C51.809 9.64585 52.1928 9.92443 52.6257 9.92443H58.2864C59.2558 9.92443 59.6582 11.1655 58.8732 11.7342L54.2983 15.0489C53.9468 15.3035 53.7997 15.7558 53.9342 16.1684L55.6828 21.5351C55.9828 22.4559 54.9295 23.2229 54.1452 22.6547L49.5597 19.3323C49.2097 19.0787 48.7363 19.0787 48.3863 19.3323L43.8007 22.6547C43.0165 23.2229 41.9632 22.4559 42.2632 21.5351L44.0118 16.1684C44.1462 15.7558 43.9991 15.3035 43.6477 15.0489L39.0728 11.7342C38.2878 11.1655 38.6901 9.92443 39.6595 9.92443H45.3203C45.7532 9.92443 46.137 9.64585 46.2711 9.23422L48.0222 3.85982Z"
              fill="#070707"/>
        <path d="M83.1193 3.85982C83.4192 2.93955 84.7211 2.93955 85.0209 3.85982L86.772 9.23422C86.9062 9.64585 87.2899 9.92443 87.7228 9.92443H93.3836C94.353 9.92443 94.7553 11.1655 93.9703 11.7342L89.3954 15.0489C89.044 15.3035 88.8969 15.7558 89.0314 16.1684L90.7799 21.5351C91.08 22.4559 90.0267 23.2229 89.2424 22.6547L84.6569 19.3323C84.3068 19.0787 83.8335 19.0787 83.4834 19.3323L78.8979 22.6547C78.1136 23.2229 77.0603 22.4559 77.3604 21.5351L79.1089 16.1684C79.2434 15.7558 79.0963 15.3035 78.7448 15.0489L74.17 11.7342C73.385 11.1655 73.7873 9.92443 74.7567 9.92443H80.4174C80.8504 9.92443 81.2341 9.64585 81.3682 9.23422L83.1193 3.85982Z"
              fill="#070707"/>
        <path d="M118.216 3.85982C118.516 2.93955 119.818 2.93955 120.118 3.85982L121.869 9.23422C122.003 9.64585 122.387 9.92443 122.82 9.92443H128.481C129.45 9.92443 129.852 11.1655 129.067 11.7342L124.492 15.0489C124.141 15.3035 123.994 15.7558 124.128 16.1684L125.877 21.5351C126.177 22.4559 125.124 23.2229 124.339 22.6547L119.754 19.3323C119.404 19.0787 118.931 19.0787 118.58 19.3323L113.995 22.6547C113.211 23.2229 112.157 22.4559 112.457 21.5351L114.206 16.1684C114.34 15.7558 114.193 15.3035 113.842 15.0489L109.267 11.7342C108.482 11.1655 108.884 9.92443 109.854 9.92443H115.514C115.947 9.92443 116.331 9.64585 116.465 9.23422L118.216 3.85982Z"
              fill="#070707"/>
        <path d="M153.314 3.85982C153.613 2.93955 154.915 2.93955 155.215 3.85982L156.966 9.23422C157.1 9.64585 157.484 9.92443 157.917 9.92443H163.578C164.547 9.92443 164.95 11.1655 164.165 11.7342L159.59 15.0489C159.238 15.3035 159.091 15.7558 159.226 16.1684L160.974 21.5351C161.274 22.4559 160.221 23.2229 159.437 22.6547L154.851 19.3323C154.501 19.0787 154.028 19.0787 153.678 19.3323L149.092 22.6547C148.308 23.2229 147.255 22.4559 147.555 21.5351L149.303 16.1684C149.438 15.7558 149.291 15.3035 148.939 15.0489L144.364 11.7342C143.579 11.1655 143.982 9.92443 144.951 9.92443H150.612C151.045 9.92443 151.428 9.64585 151.562 9.23422L153.314 3.85982Z"
              fill="#D8D8D8"/>
    </g>


    <g id="WA_Logo">
        <g>
            <path fill-rule="evenodd" clip-rule="evenodd" d="M20.5,3.5C18.25,1.25,15.2,0,12,0C5.41,0,0,5.41,0,12c0,2.11,0.65,4.11,1.7,5.92
			L0,24l6.33-1.55C8.08,23.41,10,24,12,24c6.59,0,12-5.41,12-12C24,8.81,22.76,5.76,20.5,3.5z M12,22c-1.78,0-3.48-0.59-5.01-1.49
			l-0.36-0.22l-3.76,0.99l1-3.67l-0.24-0.38C2.64,15.65,2,13.88,2,12C2,6.52,6.52,2,12,2c2.65,0,5.2,1.05,7.08,2.93S22,9.35,22,12
			C22,17.48,17.47,22,12,22z M17.5,14.45c-0.3-0.15-1.77-0.87-2.04-0.97c-0.27-0.1-0.47-0.15-0.67,0.15
			c-0.2,0.3-0.77,0.97-0.95,1.17c-0.17,0.2-0.35,0.22-0.65,0.07c-0.3-0.15-1.26-0.46-2.4-1.48c-0.89-0.79-1.49-1.77-1.66-2.07
			c-0.17-0.3-0.02-0.46,0.13-0.61c0.13-0.13,0.3-0.35,0.45-0.52s0.2-0.3,0.3-0.5c0.1-0.2,0.05-0.37-0.02-0.52
			C9.91,9.02,9.31,7.55,9.06,6.95c-0.24-0.58-0.49-0.5-0.67-0.51C8.22,6.43,8.02,6.43,7.82,6.43S7.3,6.51,7.02,6.8
			C6.75,7.1,5.98,7.83,5.98,9.3c0,1.47,1.07,2.89,1.22,3.09c0.15,0.2,2.11,3.22,5.1,4.51c0.71,0.31,1.27,0.49,1.7,0.63
			c0.72,0.23,1.37,0.2,1.88,0.12c0.57-0.09,1.77-0.72,2.02-1.42c0.25-0.7,0.25-1.3,0.17-1.42C18,14.68,17.8,14.6,17.5,14.45z"/>
        </g>
    </g>

    <g id="LI_Logo">
        <path d="M31.181 31.326h-6.501c-0.46 0-0.831-0.372-0.831-0.831v-10.469c0-3.591-1.852-3.591-2.463-3.591-1.644 0-2.343 1.298-2.57 1.858-0.107 0.252-0.157 0.68-0.157 1.279v10.929c0 0.46-0.372 0.831-0.831 0.831h-6.507c-0.22 0-0.435-0.088-0.592-0.246s-0.246-0.372-0.239-0.592c0-0.176 0.088-17.732 0-19.528-0.013-0.227 0.069-0.447 0.227-0.611s0.372-0.258 0.605-0.258h6.507c0.46 0 0.831 0.372 0.831 0.831v0.491c1.096-0.976 2.677-1.783 5.033-1.783 5.209 0 8.321 3.603 8.321 9.638v11.219c0 0.46-0.372 0.831-0.831 0.831h0zM25.512 29.663l4.844-0v-10.387c0-5.071-2.425-7.975-6.658-7.975-2.828 0-4.202 1.411-5.065 2.702-0.101 0.34-0.422 0.592-0.8 0.592h-0.044c-0.302 0-0.58-0.164-0.724-0.428-0.113-0.208-0.139-0.447-0.063-0.668v-1.745h-4.832c0.044 3.471 0 14.702-0.013 17.902h4.838v-10.091c0-0.838 0.088-1.442 0.277-1.902 0.731-1.808 2.268-2.898 4.107-2.898 2.62 0 4.126 1.915 4.126 5.254v9.644h0.006zM7.723 31.326h-6.507c-0.46 0-0.831-0.372-0.831-0.831v-19.565c0-0.46 0.372-0.831 0.831-0.831h6.507c0.46 0 0.831 0.372 0.831 0.831v19.565c0 0.46-0.372 0.831-0.831 0.831zM2.047 29.663h4.844v-17.902h-4.844v17.902zM4.472 9.090l-0.044-0c-2.564 0-4.428-1.776-4.428-4.22 0-2.438 1.896-4.214 4.517-4.214 2.576 0 4.416 1.726 4.466 4.195 0 2.463-1.896 4.239-4.51 4.239zM4.516 2.324c-1.707 0-2.854 1.027-2.854 2.551 0 1.499 1.134 2.551 2.765 2.551h0.044c1.701 0 2.847-1.027 2.847-2.551-0.032-1.543-1.134-2.551-2.803-2.551z"></path>
    </g>

    <g id="TG_Logo">
        <path fill-rule="evenodd" clip-rule="evenodd" d="M23.1117 4.49449C23.4296 2.94472 21.9074 1.65683 20.4317 2.227L2.3425 9.21601C0.694517 9.85273 0.621087 12.1572 2.22518 12.8975L6.1645 14.7157L8.03849 21.2746C8.13583 21.6153 8.40618 21.8791 8.74917 21.968C9.09216 22.0568 9.45658 21.9576 9.70712 21.707L12.5938 18.8203L16.6375 21.8531C17.8113 22.7334 19.5019 22.0922 19.7967 20.6549L23.1117 4.49449ZM3.0633 11.0816L21.1525 4.0926L17.8375 20.2531L13.1 16.6999C12.7019 16.4013 12.1448 16.4409 11.7929 16.7928L10.5565 18.0292L10.928 15.9861L18.2071 8.70703C18.5614 8.35278 18.5988 7.79106 18.2947 7.39293C17.9906 6.99479 17.4389 6.88312 17.0039 7.13168L6.95124 12.876L3.0633 11.0816ZM8.17695 14.4791L8.78333 16.6015L9.01614 15.321C9.05253 15.1209 9.14908 14.9366 9.29291 14.7928L11.5128 12.573L8.17695 14.4791Z" />
    </g>

    <g id="GH_Logo">
        <path d="M1873.256 674.212c0-122.468-35.728-230.622-106.325-321.88 15.712-57.683 32.5-171.972-20.77-313.703-5.596-15.066-17.864-26.796-33.146-32.07-19.155-6.564-122.144-30.347-328.552 110.953-84.157-22.169-172.94-33.576-264.844-34.114-91.582.538-180.366 11.945-264.306 34.114C648.689-23.68 545.7-.005 526.437 6.56c-15.282 5.165-27.55 17.003-33.146 32.177-53.162 141.623-36.374 255.912-20.555 313.594-70.704 91.582-106.54 199.629-106.54 321.88 0 422.826 221.905 557.131 432.188 605.666-46.49 50.903-95.24 125.158-105.68 219.537-71.78 26.044-257.633 78.13-325.109-44.015-3.013-5.596-73.394-137.641-215.017-148.08-25.075 1.184-84.587 4.305-101.052 54.346-18.51 55.961 39.495 97.716 67.906 117.41.538.323 55.745 31.962 93.841 132.045.969 4.628 23.783 114.72 134.951 181.55 87.492 52.731 202.319 63.493 341.252 32.284 0 23.46-.323 48.212-.43 63.386l-.324 31.101H796.34l.215-29.81c1.937-161.532 2.045-164.653-30.778-181.656-12.484-6.457-27.012-7.964-40.356-3.659-136.243 41.002-246.98 40.033-320.052-2.798-70.488-41.54-85.985-108.908-88.89-119.67-3.875-10.653-8.072-20.662-12.269-30.24 126.987 145.713 372.138 77.161 463.289 33.792 18.833-8.825 30.778-27.765 30.778-48.535 0-149.372 148.295-244.182 149.802-245.15 19.371-12.16 28.949-35.19 23.998-57.36-4.95-22.276-23.352-39.065-46.06-41.755-223.626-26.796-452.204-109.338-452.204-518.388 0-106.325 33.577-198.983 99.76-275.175 12.915-15.067 16.681-36.052 9.579-54.562-9.793-25.397-36.482-112.782-.323-234.819 35.729 4.09 110.845 24.321 231.16 110.307 13.344 9.578 30.455 12.376 46.383 7.856 80.497-23.568 170.356-36.267 259.248-36.805 89.321.538 179.073 13.237 259.786 36.805 15.927 4.52 32.93 1.722 46.382-7.856 121.176-86.631 196.4-106.433 230.73-110.63 36.482 122.145 9.793 209.745 0 235.142-7.21 18.51-3.444 39.603 9.578 54.562 66.076 75.977 99.545 168.527 99.545 275.175 0 409.157-229.115 491.161-453.173 517.527-20.985 2.475-38.634 16.896-44.984 37.02-6.456 20.017-.538 42.078 15.067 56.284 6.35 5.703 14.958 12.483 25.074 20.231 51.333 39.28 137.211 105.034 137.211 259.571 0 85.448-1.399 354.273-1.399 354.273l107.617.539s1.399-269.257 1.399-354.812c0-141.838-56.499-229.976-110.845-285.937 210.39-48.427 431.65-182.517 431.65-604.696" fill-rule="evenodd"/>
    </g>

</svg>