<svg xmlns="http://www.w3.org/2000/svg">

    <g id="logo">
        <path d="M512 960c-92.8 0-160-200-160-448S419.2 64 512 64s160 200 160 448-67.2 448-160 448z m0-32c65.6 0 128-185.6 128-416S577.6 96 512 96s-128 185.6-128 416 62.4 416 128 416z"
              fill="#050D42"/>
        <path d="M124.8 736c-48-80 92.8-238.4 307.2-363.2S852.8 208 899.2 288 806.4 526.4 592 651.2 171.2 816 124.8 736z m27.2-16c33.6 57.6 225.6 17.6 424-97.6S905.6 361.6 872 304 646.4 286.4 448 401.6 118.4 662.4 152 720z"
              fill="#050D42"/>
        <path d="M899.2 736c-46.4 80-254.4 38.4-467.2-84.8S76.8 368 124.8 288s254.4-38.4 467.2 84.8S947.2 656 899.2 736z m-27.2-16c33.6-57.6-97.6-203.2-296-318.4S184 246.4 152 304 249.6 507.2 448 622.4s392 155.2 424 97.6z"
              fill="#050D42"/>
        <path d="M512 592c-44.8 0-80-35.2-80-80s35.2-80 80-80 80 35.2 80 80-35.2 80-80 80zM272 312c-27.2 0-48-20.8-48-48s20.8-48 48-48 48 20.8 48 48-20.8 48-48 48zM416 880c-27.2 0-48-20.8-48-48s20.8-48 48-48 48 20.8 48 48-20.8 48-48 48z m448-432c-27.2 0-48-20.8-48-48s20.8-48 48-48 48 20.8 48 48-20.8 48-48 48z"
              fill="#2F4BFF"/>
    </g>
    <g id="menuBottom">
        <path d="M0.693848 0.941406L941.298 1.44141" stroke="#828282"/>
    </g>

    <g id="skill">
        <path d="M3.93411 4.42578H85.5995V85.2804H3.93411V4.42578Z" fill="url(#paint0_radial_6_7747)"/>
        <path d="M3.93406 4.42575H85.5994V85.2803H3.93406V4.42575ZM0.221191 89.0596H89.2944V0.646484H0.221191V89.0596ZM60.2876 36.9311C57.3602 36.9311 56.3605 38.4392 56.3605 39.6929C56.3605 41.0556 57.021 42.0004 60.9659 44.0717C66.7852 46.9425 68.6059 49.7043 68.6059 53.7379C68.6059 59.7884 64.0719 63.0408 57.9492 63.0408C54.7183 63.0408 51.9337 62.3685 50.345 61.4237C50.0772 61.3146 50.0415 61.1148 50.0415 60.8241V55.246C50.0415 54.8645 50.22 54.7554 50.4878 54.9371C52.8262 56.4815 55.5037 57.172 57.9492 57.172C60.8767 57.172 62.1084 55.9183 62.1084 54.2285C62.1084 52.8658 61.2515 51.6666 57.503 49.6861C52.2371 47.1242 50.0415 44.526 50.0415 40.1653C50.0415 35.2958 53.7901 31.244 60.2876 31.244C63.4828 31.244 65.7141 31.7346 66.928 32.2979C67.2314 32.4796 67.3028 32.7884 67.3028 33.061V38.2393C67.3028 38.5482 67.1243 38.7299 66.7495 38.6209C65.1072 37.567 62.6974 36.9311 60.2876 36.9311ZM28.3712 41.419C29.228 41.4917 29.8885 41.4917 31.3701 41.4917C35.7077 41.4917 39.7954 39.9472 39.7954 33.9331C39.7954 29.1364 36.868 26.7198 31.9234 26.7198C30.4418 26.7198 29.0317 26.7925 28.3533 26.8288L28.3712 41.419ZM21.7487 21.3598C21.7487 21.0872 22.2664 20.9055 22.5698 20.9055C24.9439 20.7965 28.4783 20.7239 32.1376 20.7239C42.4194 20.7239 46.4358 26.4654 46.4358 33.7878C46.4358 43.3813 39.5991 47.5058 31.2094 47.5058C29.7992 47.5058 29.3173 47.4331 28.3176 47.4331V61.9324C28.3176 62.2413 28.2105 62.3867 27.8714 62.3867H22.195C21.8915 62.3867 21.7487 62.2776 21.7487 61.9324V21.3598Z"
              fill="#31C5F0"/>
        <defs>
            <radialGradient id="paint0_radial_6_7747" cx="0" cy="0" r="1" gradientUnits="userSpaceOnUse"
                            gradientTransform="translate(30.8385 22.5656) scale(62.0565 61.1565)">
                <stop stop-color="#34364E" stop-opacity="0.98"/>
                <stop offset="1" stop-color="#0C0824"/>
            </radialGradient>
        </defs>
    </g>

    <g id="grade">
        <path d="M12.9251 3.85982C13.225 2.93955 14.5269 2.93955 14.8267 3.85982L16.5778 9.23422C16.7119 9.64585 17.0957 9.92443 17.5286 9.92443H23.1894C24.1588 9.92443 24.5611 11.1655 23.7761 11.7342L19.2012 15.0489C18.8498 15.3035 18.7027 15.7558 18.8371 16.1684L20.5857 21.5351C20.8857 22.4559 19.8325 23.2229 19.0482 22.6547L14.4626 19.3323C14.1126 19.0787 13.6392 19.0787 13.2892 19.3323L8.70366 22.6547C7.91941 23.2229 6.86612 22.4559 7.16614 21.5351L8.91471 16.1684C9.04917 15.7558 8.90209 15.3035 8.55063 15.0489L3.97575 11.7342C3.19075 11.1655 3.59308 9.92443 4.56247 9.92443H10.2232C10.6562 9.92443 11.0399 9.64585 11.174 9.23422L12.9251 3.85982Z"
              fill="#070707"/>
        <path d="M48.0222 3.85982C48.322 2.93955 49.6239 2.93955 49.9238 3.85982L51.6749 9.23422C51.809 9.64585 52.1928 9.92443 52.6257 9.92443H58.2864C59.2558 9.92443 59.6582 11.1655 58.8732 11.7342L54.2983 15.0489C53.9468 15.3035 53.7997 15.7558 53.9342 16.1684L55.6828 21.5351C55.9828 22.4559 54.9295 23.2229 54.1452 22.6547L49.5597 19.3323C49.2097 19.0787 48.7363 19.0787 48.3863 19.3323L43.8007 22.6547C43.0165 23.2229 41.9632 22.4559 42.2632 21.5351L44.0118 16.1684C44.1462 15.7558 43.9991 15.3035 43.6477 15.0489L39.0728 11.7342C38.2878 11.1655 38.6901 9.92443 39.6595 9.92443H45.3203C45.7532 9.92443 46.137 9.64585 46.2711 9.23422L48.0222 3.85982Z"
              fill="#070707"/>
        <path d="M83.1193 3.85982C83.4192 2.93955 84.7211 2.93955 85.0209 3.85982L86.772 9.23422C86.9062 9.64585 87.2899 9.92443 87.7228 9.92443H93.3836C94.353 9.92443 94.7553 11.1655 93.9703 11.7342L89.3954 15.0489C89.044 15.3035 88.8969 15.7558 89.0314 16.1684L90.7799 21.5351C91.08 22.4559 90.0267 23.2229 89.2424 22.6547L84.6569 19.3323C84.3068 19.0787 83.8335 19.0787 83.4834 19.3323L78.8979 22.6547C78.1136 23.2229 77.0603 22.4559 77.3604 21.5351L79.1089 16.1684C79.2434 15.7558 79.0963 15.3035 78.7448 15.0489L74.17 11.7342C73.385 11.1655 73.7873 9.92443 74.7567 9.92443H80.4174C80.8504 9.92443 81.2341 9.64585 81.3682 9.23422L83.1193 3.85982Z"
              fill="#070707"/>
        <path d="M118.216 3.85982C118.516 2.93955 119.818 2.93955 120.118 3.85982L121.869 9.23422C122.003 9.64585 122.387 9.92443 122.82 9.92443H128.481C129.45 9.92443 129.852 11.1655 129.067 11.7342L124.492 15.0489C124.141 15.3035 123.994 15.7558 124.128 16.1684L125.877 21.5351C126.177 22.4559 125.124 23.2229 124.339 22.6547L119.754 19.3323C119.404 19.0787 118.931 19.0787 118.58 19.3323L113.995 22.6547C113.211 23.2229 112.157 22.4559 112.457 21.5351L114.206 16.1684C114.34 15.7558 114.193 15.3035 113.842 15.0489L109.267 11.7342C108.482 11.1655 108.884 9.92443 109.854 9.92443H115.514C115.947 9.92443 116.331 9.64585 116.465 9.23422L118.216 3.85982Z"
              fill="#070707"/>
        <path d="M153.314 3.85982C153.613 2.93955 154.915 2.93955 155.215 3.85982L156.966 9.23422C157.1 9.64585 157.484 9.92443 157.917 9.92443H163.578C164.547 9.92443 164.95 11.1655 164.165 11.7342L159.59 15.0489C159.238 15.3035 159.091 15.7558 159.226 16.1684L160.974 21.5351C161.274 22.4559 160.221 23.2229 159.437 22.6547L154.851 19.3323C154.501 19.0787 154.028 19.0787 153.678 19.3323L149.092 22.6547C148.308 23.2229 147.255 22.4559 147.555 21.5351L149.303 16.1684C149.438 15.7558 149.291 15.3035 148.939 15.0489L144.364 11.7342C143.579 11.1655 143.982 9.92443 144.951 9.92443H150.612C151.045 9.92443 151.428 9.64585 151.562 9.23422L153.314 3.85982Z"
              fill="#D8D8D8"/>
    </g>
</svg>